<?xml version="1.0" encoding="UTF-8" standalone="no"?>
<svg
   version="1.0"
   viewBox="0 0 191.68886 108.08276"
   id="svg4"
   xmlns="http://www.w3.org/2000/svg"
   xmlns:svg="http://www.w3.org/2000/svg">
  <defs
     id="defs4" />
  <g
     id="g4"
     transform="translate(-298.43015,-655.17287)">
    <path
       stroke="currentColor"
       d="M 289.498,70.998 H 308.5 l 8.003,2.003 c 9.8,3.133 17.965,7.464 24.498,13.002 q -1.102,2.692 1.501,1.996 10.1,9.4 15.496,23.498 l 3.003,11.007 v 19.994 l -5,17.001 c -3.932,8.068 -9.102,14.897 -15.503,20.497 L 336,183.5 c -0.464,1.532 0.031,2.034 1.502,1.5 9.265,3.737 17.268,8.733 23.995,14.998 9.09,8.621 -1.003,-2.917 13.506,13.506 13.995,14.665 21.332,35.998 21.998,63.998 l -2.005,4.501 -3.498,1.996 h -6 l -5.495,-4.502 -1.006,-1.995 -0.998,-18 -5,-16.002 c -5.736,-12.933 -13.902,-23.429 -24.498,-31.496 -7.531,-6.134 -16.533,-10.806 -26.998,-14 l -17.005,-3.001 h -10.999 l -16.997,3 -20,8.996 q -12.505,8.004 -21.503,19.5 L 223.002,248.504 219,265.496 v 12.005 l -4.497,5.5 -8.003,0.997 -3.499,-1.996 c -2.4,-3 -3.065,-8.168 -2.005,-15.5 L 204,249.5 l 5,-14 14.003,-23.003 c 14.457,-14.544 -0.912,1.042 13.498,-12.5 7.111,-6.682 15.566,-11.733 25.497,-14.997 l -3.499,-5.005 -6.502,-5.5 C 246.2,168.3 241.865,160.635 239.002,151.5 l -1.997,-9.003 v -18.996 c 2.933,-15.068 9.094,-26.902 18.499,-35.503 l 2.995,-1.996 q 6.697,-7.307 17.005,-11.006 z m 1.501,17.999 q -10.994,2.007 -17.996,8.005 l -12.005,12.995 -5,11.006 -1.997,9.994 L 255,143 l 6.997,15.995 q 9.01,14.004 29.002,18.007 h 16.998 c 6.672,-1.338 12.67,-4.007 18.003,-8.006 q 8,-5.995 13.004,-14.997 l 3.994,-11 c -0.666,-3.998 -0.333,-6.334 1.006,-6.999 q -0.002,-19.006 -9.002,-28.998 c -5.333,-7.34 -12.005,-12.67 -20,-16.003 q -9.999,-4 -24.003,-2.003 z"
       transform="matrix(0.50467,0,0,0.50502,243,619.57)"
       id="path1" />
    <path
       fill="currentColor"
       stroke="currentColor"
       d="m 354.629,727.881 -2.778,-3.28 c -3.639,-3.487 -6.345,-5.886 -13.12,-6.568 h -9.59 c -6.793,1.618 -12.094,4.73 -15.895,9.344 q -3.382,3.939 -5.047,9.594 c 0,0 0.31,6.345 -1.012,9.094 -0.463,0.964 -1.318,1.779 -2.27,2.27 -0.909,0.468 -2.024,0.711 -3.027,0.507 -1.075,-0.218 -1.611,0.85 -2.777,-1.77 -1.145,-2.572 -0.504,-5.795 -0.504,-8.585 q 2.825,-14.088 12.363,-21.461 l 7.825,-4.8 q -8.28,-5.856 -8.074,-20.2 l 2.02,-7.07 4.538,-6.817 c 4.15,-3.584 8.604,-5.408 13.88,-6.566 h 5.55 q 10.6,2.02 15.898,9.344 c 8.762,10.955 3.028,22.218 3.028,22.218 q -2.27,5.556 -6.559,9.09 c 4.976,2.257 7.239,8.913 12.363,9.344 M 319.804,692.28 c -0.336,5.047 0.676,8.922 3.028,11.614 q 3.027,4.042 9.59,5.05 7.065,0 11.1,-3.535 3.534,-3.031 4.544,-8.585 0.505,-7.576 -3.028,-10.606 -2.523,-3.533 -6.558,-5.05 c -10.911,-2.67 -15.781,2.416 -18.676,11.112"
       style="stroke-width:0.504845"
       id="path3" />
    <path
       fill="currentColor"
       stroke="currentColor"
       d="m 427.288,722.264 q 4.897,-5.958 12.367,-9.344 c -2.86,-2.356 -5.465,-5.241 -6.562,-9.09 0,0 -0.788,-2.33 -1.008,-3.535 -0.363,-1.994 -0.602,-4.034 -0.504,-6.059 0.09,-1.879 0.446,-3.758 1.008,-5.554 0.607,-1.941 2.523,-5.555 2.523,-5.555 l 5.805,-6.316 8.578,-4.039 8.074,-0.504 7.066,2.02 6.812,4.546 4.04,5.805 1.511,3.535 1.012,4.547 v 5.555 q -1.715,9.645 -8.078,14.644 7.776,3.333 12.617,9.598 4.898,5.704 7.067,14.14 l 0.503,2.524 v 7.578 l -1.262,1.765 q -1.158,1.365 -4.034,1.012 l -3.282,-2.777 -0.503,-7.07 -2.02,-6.062 q -2.524,-5.303 -6.812,-8.836 -4.34,-3.738 -10.598,-5.56 l -2.019,-0.503 H 450 q -9.84,2.273 -15.39,8.84 l -0.505,1.515 m 18.673,-47.726 -6.06,2.524 q -4.538,3.538 -6.054,9.597 -0.505,8.079 3.531,11.613 3.029,3.54 9.086,4.547 6.561,-10e-4 10.598,-3.032 c 2.355,-2.019 4.039,-4.878 5.047,-8.585 v -5.047 l -2.524,-5.558 q -3.534,-6.562 -13.625,-6.06 z"
       style="stroke-width:0.504845"
       id="path4" />
  </g>
</svg>
