<?xml version="1.0" encoding="UTF-8" standalone="no"?>
<svg xmlns="http://www.w3.org/2000/svg" viewBox="0 0 810 1440" width="1080" height="1920">
  <defs>
    <clipPath id="communityClip">
      <path d="M 243,619.57 H 567 V 820.56997 H 243 Z m 0,0" />
    </clipPath>
  </defs>
  <g>
    <path
      fill="currentColor"
      d="M 289.498,70.998 H 308.5 l 8.003,2.003 c 9.8,3.133 17.965,7.464 24.498,13.002 -0.736,1.795 -0.233,2.46 1.501,1.996 6.73333,6.266667 11.89867,14.09933 15.496,23.498 l 3.003,11.007 v 19.994 l -5,17.001 c -3.932,8.068 -9.102,14.897 -15.503,20.497 L 336,183.5 c -0.464,1.532 0.031,2.034 1.502,1.5 9.265,3.737 17.268,8.733 23.995,14.998 9.08958,8.6213 -1.00331,-2.91679 13.506,13.506 13.995,14.665 21.332,35.998 21.998,63.998 l -2.005,4.501 -3.498,1.996 h -6 l -5.495,-4.502 -1.006,-1.995 -0.998,-18 -5,-16.002 c -5.736,-12.933 -13.902,-23.429 -24.498,-31.496 -7.531,-6.134 -16.533,-10.806 -26.998,-14 l -17.005,-3.001 h -10.999 l -16.997,3 -20,8.996 c -8.33667,5.336 -15.50433,11.836 -21.503,19.5 L 223.002,248.504 219,265.496 v 12.005 l -4.497,5.5 -8.003,0.997 -3.499,-1.996 c -2.4,-3 -3.065,-8.168 -2.005,-15.5 L 204,249.5 l 5,-14 14.003,-23.003 c 14.45724,-14.54372 -0.91232,1.04167 13.498,-12.5 7.1111,-6.68245 15.566,-11.733 25.497,-14.997 l -3.499,-5.005 -6.502,-5.5 C 246.2,168.3 241.865,160.635 239.002,151.5 l -1.997,-9.003 v -18.996 c 2.933,-15.068 9.094,-26.902 18.499,-35.503 l 2.995,-1.996 c 4.46467,-4.871333 10.133,-8.54 17.005,-11.006 z m 1.501,17.999 c -7.32933,1.338 -13.328,4.006333 -17.996,8.005 l -12.005,12.995 -5,11.006 -1.997,9.994 L 255,143 l 6.997,15.995 c 6.00667,9.336 15.674,15.33833 29.002,18.007 h 16.998 c 6.672,-1.338 12.67,-4.007 18.003,-8.006 5.33333,-3.99733 9.668,-8.99633 13.004,-14.997 l 3.994,-11 c -0.666,-3.998 -0.333,-6.334 1.006,-6.999 -0.001,-12.67067 -3.002,-22.33667 -9.002,-28.998 -5.333,-7.34 -12.005,-12.67 -20,-16.003 -6.666,-2.666667 -14.667,-3.334333 -24.003,-2.003 z"
    />
  </g>
</svg>
