<svg viewBox="0 0 174.393 191.035" fill="currentColor" xmlns="http://www.w3.org/2000/svg">
  <g>
    <path
      d="M165.102 127.39c-1.346-13.48-2.602-25.258-3.842-35.997-.85-7.365-2.016-17.053-3.494-26.673-2.154-14.048-14.163-23.613-29.202-23.261-11.102.26-22.381.75-33.29 1.225l-.102.006c-3.117.136-6.282.345-9.343.548-5.025.331-10.22.676-15.323.7-11.592.06-23.808 1.274-39.602 3.94-10.278 1.734-17.887 5.209-23.95 10.935-4.996 4.721-7.26 9.99-6.92 16.113.109 1.984.184 3.984.223 5.945.035 1.736.017 3.512.001 5.23-.115 3.688.01 7.38.374 11.053q.28 2.3.566 4.601c1.481 11.965 3.013 24.337 2.89 36.638-.05 5.081.342 10.239.72 15.226l.082 1.083c.644 8.544 2.335 15.992 5.17 22.767 3.058 7.309 8.42 11.55 15.939 12.607a89.5 89.5 0 0 0 14.06.953c8.773-.148 17.685-.465 26.305-.77q5.22-.185 10.437-.359h.013a.56.56 0 0 0 .319-.127l3.022-.174 6.671-.385 3.665-.205c14.458-.804 29.426-1.639 43.898-4.758 5.048-1.088 10.932-2.54 16.315-5.062 10.804-5.06 16.302-13.56 16.34-25.261.022-7.522-.756-15.045-1.51-22.32q-.218-2.11-.432-4.219m-152.184.573c-.631-7.798-1.514-16.194-2.775-26.416-.996-8.061-1.934-18.71-.321-29.648a1.2 1.2 0 0 0 .038-.463c-.866-6.043 3.353-8.672 7.82-11.456l.156-.097c4.335-2.702 9.24-3.84 13.893-4.768a231 231 0 0 1 32.11-3.797c4.483-.259 8.91-.44 13.252-.6 7.902-.29 15.933-.645 23.699-.989 6.779-.3 13.785-.61 20.68-.875a66 66 0 0 1 9.574.262c11.437 1.225 18.125 8.193 19.342 20.152.999 9.824 1.973 19.818 2.915 29.483q1.06 10.863 2.136 21.725c.261 2.62.564 5.277.859 7.847.461 4.022.939 8.184 1.258 12.278.378 4.843.394 9.837.381 14.533-.023 6.838-3.73 11.909-11.014 15.07a70.3 70.3 0 0 1-13.865 4.15c-15.995 3.323-32.555 4.171-48.577 4.993l-2.104.108q-1.266.066-2.528.146l-1.145.066a.66.66 0 0 0-.519.3q-5.238.17-10.475.345c-10.28.34-20.908.692-31.362.953a52.4 52.4 0 0 1-8.055-.646l-.468-.06c-4.45-.588-7.55-3.121-9.216-7.539a73.6 73.6 0 0 1-4.42-21.506c-.217-3.361-.366-6.78-.51-10.09-.197-4.414-.396-8.978-.759-13.461" />
    <path
      transform="rotate(30.8 87.691 264.503)"
      d="M16.599 33.433c-1.048-.325-1.798-.508-2.513-.786a40 40 0 0 1-5.517-2.261C2.044 26.648-.33 20.063 2.132 12.978 5.3 3.86 13.272-.875 22.774.752c1.746.299 3.472.722 5.204 1.104 4.16.919 6.815 3.48 8.184 7.477a21.75 21.75 0 0 1 .221 13.739 12.46 12.46 0 0 1-8.193 8.533c-1.452.514-2.94.927-4.69 1.473 0 .715-.004 1.46 0 2.21.187 30.442.365 28.885.535 59.328.014 3.099-.332 6.204-.585 9.3a9.4 9.4 0 0 1-.633 2.557 3.36 3.36 0 0 1-3.644 2.308 3.26 3.26 0 0 1-3.144-2.534 15.4 15.4 0 0 1-.59-3.924c.12-27.999.276-23.997.467-51.996.037-4.88.454-9.758.688-14.638.032-.658.005-1.317.005-2.256m12.68-16.404c0-.554.035-1.11-.006-1.662-.274-3.692-1.856-6.318-5.751-7.086-2.493-.491-4.961-1.145-7.473-1.494a4.36 4.36 0 0 0-2.731.739c-2.622 1.723-4.04 4.34-4.893 7.291-1.162 4.02-.022 6.966 3.61 8.983a14.33 14.33 0 0 0 10.906 1.394c4.939-1.264 6.393-3.008 6.338-8.165" />
  </g>
</svg>
